<svg xmlns="http://www.w3.org/2000/svg" width="32" height="32" fill="none"><rect width="32" height="32" fill="#fff" rx="10"/><path fill="#4FA1C1" d="M22.65 19.264h3.262c.601 0 1.088.499 1.088 1.114v3.345c0 .616-.487 1.115-1.088 1.115H22.65c-.601 0-1.088-.5-1.088-1.115v-3.345c0-.615.487-1.114 1.088-1.114Zm.815-2.788H16.94v1.673h-1.632v-1.673H8.783v1.673H7.15v-2.007c0-.737.586-1.338 1.306-1.338h6.851v-2.23h-1.36c-.6 0-1.087-.499-1.087-1.114V8.114c0-.616.487-1.115 1.088-1.115h4.35c.6 0 1.088.5 1.088 1.115v3.345c0 .615-.487 1.114-1.088 1.114h-1.36v2.23h6.852c.72 0 1.306.6 1.306 1.338v2.007h-1.632v-1.673Zm-8.972 2.788h3.262c.6 0 1.088.499 1.088 1.114v3.345c0 .616-.487 1.115-1.088 1.115h-3.262c-.601 0-1.088-.5-1.088-1.115v-3.345c0-.615.487-1.114 1.088-1.114Zm-8.157 0h3.262c.6 0 1.088.499 1.088 1.114v3.345c0 .616-.487 1.115-1.088 1.115H6.336c-.601 0-1.088-.5-1.088-1.115v-3.345c0-.615.487-1.114 1.088-1.114Z"/></svg>