<svg xmlns="http://www.w3.org/2000/svg" width="32" height="32" fill="none"><rect width="32" height="32" fill="#fff" rx="10"/><path fill="#4FA1C1" d="m21.335 9.206 3.212 3.48a.4.4 0 0 1 0 .532l-7.777 8.426-3.304.398c-.441.054-.815-.352-.765-.83l.366-3.58 7.777-8.426a.33.33 0 0 1 .491 0Zm5.768-.883L25.366 6.44a1.318 1.318 0 0 0-1.966 0l-1.26 1.366a.4.4 0 0 0 0 .532l3.211 3.48a.33.33 0 0 0 .492 0l1.26-1.366a1.6 1.6 0 0 0 0-2.13Zm-6.43 11.03v3.927H9.279V10.934h8.182c.114 0 .22-.05.303-.135l1.424-1.543c.27-.293.078-.79-.303-.79H8.71C7.766 8.465 7 9.294 7 10.316v13.58c0 1.023.766 1.852 1.71 1.852h12.532c.944 0 1.71-.83 1.71-1.852V17.81c0-.413-.46-.617-.73-.328l-1.425 1.544a.496.496 0 0 0-.124.328Z"/></svg>