<svg xmlns="http://www.w3.org/2000/svg" width="32" height="32" fill="none"><rect width="32" height="32" fill="#fff" rx="10"/><g clip-path="url(#a)"><path fill="#4FA1C1" d="M12.429 11.36V9.64c0-.283.229-.515.508-.515h1.697c.28 0 .509.232.509.516v1.718c0 .284-.23.516-.51.516h-1.695a.514.514 0 0 1-.51-.516Zm5.937.515h1.697c.28 0 .508-.232.508-.516V9.641a.514.514 0 0 0-.509-.516h-1.696a.514.514 0 0 0-.509.516v1.718c0 .284.23.516.51.516ZM12.938 16h1.696c.28 0 .509-.232.509-.516v-1.718a.514.514 0 0 0-.51-.516h-1.695a.514.514 0 0 0-.51.516v1.718c0 .284.23.516.51.516Zm5.428 0h1.697c.28 0 .508-.232.508-.516v-1.718a.514.514 0 0 0-.509-.516h-1.696a.514.514 0 0 0-.509.516v1.718c0 .284.23.516.51.516Zm-3.223 3.61v-1.72a.514.514 0 0 0-.51-.515h-1.695a.514.514 0 0 0-.51.516v1.718c0 .284.23.516.51.516h1.696c.28 0 .509-.232.509-.516Zm3.223.515h1.697c.28 0 .508-.232.508-.516v-1.718a.514.514 0 0 0-.509-.516h-1.696a.514.514 0 0 0-.509.516v1.718c0 .284.23.516.51.516ZM26 25.453V27H7v-1.547c0-.284.229-.515.509-.515h.827V6.03C8.336 5.46 8.79 5 9.354 5h14.292c.564 0 1.018.46 1.018 1.031v18.907h.827c.28 0 .509.232.509.515Zm-15.628-.558h4.77v-2.88c0-.283.23-.515.51-.515h1.696c.28 0 .51.232.51.516v2.879h4.77V7.105l-12.235-.043-.021 17.832Z"/></g><defs><clipPath id="a"><path fill="#fff" d="M7 5h19v22H7z"/></clipPath></defs></svg>