<svg xmlns="http://www.w3.org/2000/svg" width="142" height="159" fill="none"><g fill="#959595" clip-path="url(#a)"><path d="M55.343 71.71 33.626 90.693l3.503 63.976h32.225l30.824-64.68L77.06 71.71H55.343Z"/><path d="m82.44 72.259-.07.07.042.042.028-.112ZM142 159c-2.13-27.109-5.17-52.869-9.794-58.563-6.347-7.846-40.73-17.562-40.73-17.562s-8.938 23.425-9.428 25.084c-.295.844-5.24-3.585-5.52-2.742-3.181 12.332-10.313 33.324-12.583 45.571l-.056-44.376 4.834-6.341-5.8-5.259 20.021-19.305c-.028-.014-.644-3.234-.672-3.248-.449-7.424 1.26-13.752 1.947-15.987 2.634.801 5.535-8.339 6.557-11.432 1.023-3.093-1.036-5.413-1.036-5.413.126-.52 0-.605 1.54-3.094 1.29-2.053-.77-17.013-2.311-21.653-1.541-4.64-5.394-7.48-12.077-10.054C70.25 2.066 61.256 0 56.884 0c-4.371 0-5.898 2.32-7.188 3.614 0 0-3.082.506-5.394.506-2.312 0-5.758 3.43-8 6.693-3.573 5.174-3.573 16.521-3.25 19.868.784 8.113 2.003 9.547 2.676 9.674-.533.182-1.373.52-1.92 1.026-1.891 1.73 2.312 12.402 3.083 13.681.77 1.294 1.513 1.406 1.513 1.406s1.205 3.375 1.793 5.16c.98 2.911 3.84 4.795 3.853 4.894.112 1.153 2.522 6.847 3.25 12.992-.336.253-.756.605-1.232.998l.042.282 11.587 14.482-5.184 4.964 3.068 6.172-5.969 43.687-5.464-44.193-3.755 3.08-1.765-22.61-1.57 1.153C29.9 91.255 6.572 103.038 4.597 109.984 3.46 113.963 1.345 136.348 0 159h142Z"/><path d="M82.608 74.832c-2.564-1.716-32.547 2.278-32.547 2.278l-2.48.168-13.395 11.826.337 1.546 1.709.52 1.079-2.741 9.443-8.338 9.107 8.338 14.684-.914 11.937-11.08 8.645 7.086.476 2.855 3.839-1.027c.028-.014-10.27-8.802-12.834-10.517Z"/></g><defs><clipPath id="a"><path fill="#fff" d="M0 0h142v159H0z"/></clipPath></defs></svg>