<svg xmlns="http://www.w3.org/2000/svg" width="32" height="32" fill="none"><rect width="32" height="32" fill="#fff" rx="10"/><path fill="#4FA1C1" d="M24.78 15.584c.009 4.739-3.761 8.614-8.384 8.617a8.229 8.229 0 0 1-5.271-1.904.846.846 0 0 1-.063-1.235l.382-.391a.799.799 0 0 1 1.078-.069 6.105 6.105 0 0 0 3.868 1.38c3.44 0 6.225-2.855 6.225-6.382 0-3.527-2.785-6.38-6.225-6.38a6.123 6.123 0 0 0-4.265 1.731l1.717 1.76c.341.35.1.947-.383.947H8.541A.548.548 0 0 1 8 13.104V8.062c0-.494.583-.742.924-.392l1.67 1.712A8.255 8.255 0 0 1 16.39 7c4.628 0 8.382 3.842 8.39 8.584Zm-6.12 2.732.332-.438a.846.846 0 0 0-.142-1.168l-1.377-1.098v-3.618a.822.822 0 0 0-.812-.832h-.542a.822.822 0 0 0-.812.832v4.704l2.213 1.764a.799.799 0 0 0 1.14-.146Z"/></svg>