<svg xmlns="http://www.w3.org/2000/svg" width="36" height="39" fill="none"><rect width="32" height="32" fill="#fff" rx="10"/><g clip-path="url(#a)"><path fill="#4FA1C1" d="M25.634 20.567c-.82-.892-2.352-2.234-2.352-6.63 0-3.338-2.31-6.01-5.426-6.667v-.895c0-.76-.608-1.375-1.357-1.375s-1.356.616-1.356 1.375v.895c-3.115.656-5.426 3.329-5.426 6.668 0 4.395-1.533 5.737-2.352 6.63a1.352 1.352 0 0 0-.366.932c.005.705.55 1.375 1.362 1.375h16.277c.81 0 1.357-.67 1.361-1.375a1.352 1.352 0 0 0-.365-.933Zm-15.77.245c.9-1.201 1.883-3.193 1.888-6.85l-.003-.024c0-2.659 2.127-4.813 4.75-4.813 2.624 0 4.75 2.155 4.75 4.813l-.002.024c.005 3.657.988 5.65 1.888 6.85H9.863ZM16.498 27c1.498 0 2.713-1.231 2.713-2.75h-5.426c0 1.519 1.215 2.75 2.713 2.75Z"/></g><rect width="13.673" height="14.015" x="22" y="24" fill="#fff" rx="4"/><path fill="#4FA1C1" d="M31.167 30.617v.592c0 .14-.114.254-.253.254H27.38a.254.254 0 0 1-.252-.254v-.592c0-.14.114-.254.253-.254h3.534c.14 0 .253.115.253.254Zm-.253 1.523H27.38a.254.254 0 0 0-.252.254v.592c0 .14.114.254.253.254h3.534a.254.254 0 0 0 .253-.254v-.592a.254.254 0 0 0-.253-.254Zm2.273-3.979v7.025c0 .56-.453 1.016-1.01 1.016h-6.06c-.558 0-1.01-.455-1.01-1.016v-8.8c0-.56.453-1.015 1.01-1.015h4.294c.268 0 .524.108.714.299l1.765 1.774c.19.189.297.449.297.717Zm-2.694-1.692v1.61h1.601l-1.6-1.61Zm1.684 8.717v-6.092h-2.189a.505.505 0 0 1-.505-.508v-2.2h-3.366v8.8h6.06Z"/><defs><clipPath id="a"><path fill="#fff" d="M7 5h19v22H7z"/></clipPath></defs></svg>