<svg xmlns="http://www.w3.org/2000/svg" width="32" height="38" fill="none"><path fill="#fff" d="M31.143 35.294h-1.429V1.764C29.714.79 28.947 0 28 0H4c-.947 0-1.714.79-1.714 1.765v33.53H.857a.87.87 0 0 0-.857.882v1.47h32v-1.47a.87.87 0 0 0-.857-.883Zm-22-29.706A.87.87 0 0 1 10 4.706h2.857a.87.87 0 0 1 .857.882V8.53a.87.87 0 0 1-.857.882H10a.87.87 0 0 1-.857-.882V5.588Zm0 7.06a.87.87 0 0 1 .857-.883h2.857a.87.87 0 0 1 .857.882v2.941a.87.87 0 0 1-.857.883H10a.87.87 0 0 1-.857-.883v-2.94Zm3.714 10.881H10a.87.87 0 0 1-.857-.882v-2.941a.87.87 0 0 1 .857-.882h2.857a.87.87 0 0 1 .857.882v2.941a.87.87 0 0 1-.857.883Zm5.429 11.765h-4.572v-6.176a.87.87 0 0 1 .857-.883h2.858a.87.87 0 0 1 .857.883v6.176Zm4.571-12.647a.87.87 0 0 1-.857.883h-2.857a.87.87 0 0 1-.857-.883v-2.941a.87.87 0 0 1 .857-.882H22a.87.87 0 0 1 .857.882v2.941Zm0-7.059a.87.87 0 0 1-.857.883h-2.857a.87.87 0 0 1-.857-.883v-2.94a.87.87 0 0 1 .857-.883H22a.87.87 0 0 1 .857.882v2.941Zm0-7.058a.87.87 0 0 1-.857.882h-2.857a.87.87 0 0 1-.857-.882V5.588a.87.87 0 0 1 .857-.882H22a.87.87 0 0 1 .857.882V8.53Z"/></svg>